<?xml version="1.0" standalone="no"?>
<!DOCTYPE svg PUBLIC "-//W3C//DTD SVG 20010904//EN"
 "http://www.w3.org/TR/2001/REC-SVG-20010904/DTD/svg10.dtd">
<svg version="1.0" xmlns="http://www.w3.org/2000/svg"
 width="256.000000pt" height="256.000000pt" viewBox="0 0 256.000000 256.000000"
 preserveAspectRatio="xMidYMid meet">
<metadata>
Created by potrace 1.11, written by Peter Selinger 2001-2013
</metadata>
<g transform="translate(0.000000,256.000000) scale(0.100000,-0.100000)"
fill="#000000" stroke="none">
<path d="M2000 2455 c-91 -25 -174 -46 -185 -49 -11 -2 -146 -36 -300 -76
-154 -40 -408 -105 -565 -145 -157 -40 -402 -103 -545 -140 -143 -36 -268 -68
-278 -70 -64 -14 -64 -14 -42 -95 9 -30 18 -75 20 -99 2 -24 7 -60 10 -80 2
-20 7 -67 10 -106 9 -103 14 -125 35 -155 20 -29 26 -53 35 -155 10 -116 16
-170 20 -195 2 -14 7 -54 10 -90 3 -36 8 -81 10 -100 3 -19 7 -62 10 -95 3
-33 7 -73 9 -90 12 -100 19 -164 21 -195 2 -19 6 -53 8 -75 3 -22 9 -74 12
-115 3 -41 8 -84 10 -95 2 -11 4 -28 4 -37 2 -33 60 -87 104 -96 l42 -10 -40
-2 c-22 -1 -44 -2 -49 -1 -5 1 -13 -4 -17 -11 -7 -10 -9 -10 -9 0 0 9 -5 10
-19 2 -14 -7 -21 -6 -24 3 -3 6 -5 3 -4 -8 1 -18 9 -20 91 -23 49 -2 93 -5 97
-8 4 -2 10 2 12 8 4 10 6 10 6 0 1 -7 5 -11 10 -8 4 3 65 6 135 7 84 1 126 6
126 13 0 8 3 8 8 -1 4 -6 25 -11 47 -11 22 0 43 5 47 11 5 8 8 4 8 -8 0 -11 4
-15 8 -10 8 12 103 15 96 3 -3 -4 2 -5 10 -2 9 3 13 11 9 17 -4 6 -1 7 8 1 8
-4 34 -10 58 -12 38 -3 43 -1 33 11 -7 7 -10 16 -7 19 3 2 -22 5 -55 6 -33 0
-62 -3 -66 -9 -4 -6 -10 -7 -17 0 -7 5 -66 9 -132 9 -219 0 -367 4 -361 9 3 3
22 7 43 9 35 3 97 8 213 19 25 2 68 7 95 10 54 5 133 13 205 19 42 4 104 10
205 21 22 2 65 7 95 10 30 3 75 8 100 10 25 3 70 7 100 10 58 5 131 13 190 20
35 4 93 10 200 21 30 3 69 7 85 9 17 2 57 7 90 10 33 3 76 8 95 10 19 3 58 7
85 10 109 13 130 17 133 26 2 5 9 9 16 9 7 0 22 18 35 40 20 36 22 50 17 118
-4 42 -8 88 -10 102 -3 14 -8 57 -11 95 -4 39 -8 81 -10 95 -1 14 -6 54 -9 90
-4 36 -9 83 -11 105 -2 22 -7 67 -10 100 -4 33 -8 74 -10 90 -6 46 -13 113
-20 185 -3 36 -8 83 -12 105 -3 22 -7 60 -8 85 -2 25 -6 63 -8 85 -3 22 -8 67
-11 100 -7 62 -20 181 -25 208 0 5 -22 6 -48 3 -27 -3 -73 -8 -103 -11 -132
-13 -245 -25 -280 -30 -14 -2 -59 -6 -100 -10 -41 -4 -86 -8 -100 -10 -14 -2
-54 -7 -90 -10 -36 -3 -76 -7 -90 -10 -14 -3 -56 -7 -95 -10 -87 -8 -117 -11
-180 -19 -48 -6 -83 -9 -210 -21 -33 -3 -71 -8 -85 -10 -14 -2 -54 -7 -90 -10
-36 -3 -81 -8 -101 -11 -119 -16 -114 -17 -148 31 -17 24 -28 46 -24 48 6 4
412 110 623 162 8 3 42 11 75 20 33 8 67 17 76 19 9 2 94 25 190 50 96 24 293
75 439 112 146 37 271 71 278 77 9 7 11 62 2 62 -1 0 -3 7 -5 15 -3 16 -23 95
-31 123 -7 24 -27 22 -214 -28z"/>
<path d="M1106 83 c-3 -4 -1 -12 5 -20 9 -10 15 -10 25 -2 8 6 14 7 14 2 0
-11 39 -11 58 0 7 5 12 3 12 -4 0 -8 5 -7 17 2 10 8 14 9 10 2 -5 -8 1 -10 20
-7 14 3 31 8 36 11 6 3 7 1 3 -5 -4 -7 -2 -12 3 -12 6 0 11 6 11 13 0 7 3 8 8
2 8 -11 88 -12 140 -1 22 4 31 3 27 -4 -4 -7 2 -7 18 -1 16 6 28 6 35 -1 8 -8
9 -5 6 8 -5 19 -44 29 -44 11 0 -4 -5 -5 -12 -1 -23 14 -79 10 -88 -6 -8 -13
-9 -13 -10 1 0 16 -30 23 -30 7 0 -4 -5 -8 -11 -8 -5 0 -8 3 -5 8 2 4 -33 7
-79 8 -56 0 -82 -3 -77 -10 3 -6 -3 -4 -13 4 -17 13 -18 13 -10 0 7 -12 6 -13
-6 -4 -16 12 -54 16 -63 7z"/>
<path d="M1567 83 c-3 -5 -2 -15 4 -23 6 -11 9 -11 9 -2 0 9 5 10 19 3 14 -8
22 -7 31 4 7 8 17 12 23 8 5 -3 28 -7 51 -8 22 -2 33 -1 23 2 -9 2 -14 9 -11
15 4 6 -2 5 -15 -1 -15 -8 -27 -9 -40 -1 -14 7 -22 7 -26 0 -5 -8 -12 -7 -23
2 -12 10 -14 10 -8 1 9 -16 -6 -17 -21 -2 -6 6 -13 7 -16 2z"/>
</g>
</svg>
